<svg width="332" height="332" viewBox="0 0 332 332" fill="none" xmlns="http://www.w3.org/2000/svg">
<path fill-rule="evenodd" clip-rule="evenodd" d="M260.058 104.208L260.058 104.204V104.203C260.041 102.234 260.026 100.381 260.026 98.669C260.026 83.2989 247.566 70.8389 232.196 70.8389C216.825 70.8389 204.365 83.2989 204.365 98.669C204.365 100.382 204.35 102.237 204.333 104.208C204.226 116.873 204.078 134.319 207.798 149.668C209.916 158.406 212.976 164.942 216.796 169.115C220.158 172.789 224.681 175.324 232.196 175.324C239.71 175.324 244.233 172.789 247.595 169.115C251.415 164.942 254.475 158.406 256.593 149.668C260.313 134.319 260.165 116.873 260.058 104.208ZM274.708 103.814C274.69 101.93 274.673 100.204 274.673 98.669C274.673 75.2093 255.655 56.1914 232.196 56.1914C208.736 56.1914 189.718 75.2093 189.718 98.669C189.718 100.204 189.701 101.93 189.683 103.814C189.617 110.607 189.531 119.462 190.137 128.905C191.638 127.417 193.703 126.497 195.984 126.497C200.568 126.497 204.284 130.213 204.284 134.797C204.284 139.381 200.568 143.097 195.984 143.097C194.298 143.097 192.73 142.595 191.421 141.732C194.85 166.068 204.663 189.972 232.196 189.972C259.775 189.972 269.575 165.987 272.988 141.608C271.643 142.546 270.007 143.097 268.243 143.097C263.659 143.097 259.943 139.38 259.943 134.796C259.943 130.212 263.659 126.496 268.243 126.496C270.603 126.496 272.732 127.481 274.244 129.062C274.861 119.56 274.774 110.644 274.708 103.814Z" fill="url(#paint0_linear)"/>
<path fill-rule="evenodd" clip-rule="evenodd" d="M162.896 113.435C163.673 108.583 167.858 105.015 172.771 105.015H292.426C297.339 105.015 301.524 108.583 302.301 113.435L324.59 252.742C326.534 264.894 317.147 275.902 304.841 275.902H160.356C148.05 275.902 138.663 264.894 140.607 252.742L162.896 113.435ZM204.282 134.796C204.282 139.38 200.566 143.096 195.982 143.096C191.398 143.096 187.682 139.38 187.682 134.796C187.682 130.212 191.398 126.496 195.982 126.496C200.566 126.496 204.282 130.212 204.282 134.796ZM268.241 143.096C272.825 143.096 276.542 139.38 276.542 134.796C276.542 130.212 272.825 126.496 268.241 126.496C263.657 126.496 259.941 130.212 259.941 134.796C259.941 139.38 263.657 143.096 268.241 143.096Z" fill="url(#paint1_linear)"/>
<path opacity="0.4" d="M8.00684 182.159C8.00684 176.765 12.3788 172.394 17.7718 172.394H127.139C132.533 172.394 136.904 176.765 136.904 182.159V182.159C136.904 187.552 132.533 191.924 127.139 191.924H17.7718C12.3788 191.924 8.00684 187.552 8.00684 182.159V182.159Z" fill="#8259F7"/>
<path opacity="0.4" d="M68.5498 148.958C68.5498 143.565 72.9217 139.193 78.3148 139.193H133.975C139.368 139.193 143.74 143.565 143.74 148.958V148.958C143.74 154.351 139.368 158.723 133.975 158.723H78.3148C72.9217 158.723 68.5498 154.351 68.5498 148.958V148.958Z" fill="#8259F7"/>
<path opacity="0.4" d="M38.2773 215.359C38.2773 209.966 42.6493 205.594 48.0423 205.594H118.35C123.743 205.594 128.115 209.966 128.115 215.359V215.359C128.115 220.752 123.743 225.124 118.35 225.124H48.0423C42.6493 225.124 38.2773 220.752 38.2773 215.359V215.359Z" fill="#8259F7"/>
<defs>
<linearGradient id="paint0_linear" x1="232.196" y1="56.1914" x2="232.196" y2="189.972" gradientUnits="userSpaceOnUse">
<stop stop-color="#906BFB"/>
<stop offset="1" stop-color="#6934FF"/>
</linearGradient>
<linearGradient id="paint1_linear" x1="152.596" y1="185.087" x2="319.918" y2="185.087" gradientUnits="userSpaceOnUse">
<stop stop-color="#906BFB"/>
<stop offset="1" stop-color="#6934FF"/>
</linearGradient>
</defs>
</svg>
